<svg width="240" height="121" fill="none" xmlns="http://www.w3.org/2000/svg"><path d="M160 16.826H80v88h80v-88Z" fill="#0051FF"/><path d="M80 16.826H0v88h80v-88Z" fill="url(#a)"/><path d="M0 104.926h80v-88.1H0v88.1Z" fill="#45E1E5"/><path d="M80 16.826H64v88h16v-88Z" fill="#0051FF"/><path d="M176 104.826H64v16h112v-16ZM176 .826H64v16h112v-16Z" fill="#7FD057"/><path d="M240 16.826h-80v88.1h80v-88.1Z" fill="#45E1E5"/><path d="M176 16.826H64v88h112v-88Z" fill="#000"/><path d="M37.793 82.412c-7.038 0-12.797 5.758-12.797 12.796 0-7.038-5.758-12.796-12.796-12.796 7.038 0 12.796-5.759 12.796-12.797 0 7.038 5.759 12.797 12.797 12.797ZM218.644 82.412c-7.038 0-12.797 5.758-12.797 12.796 0-7.038-5.758-12.796-12.796-12.796 7.038 0 12.796-5.759 12.796-12.797 0 7.038 5.759 12.797 12.797 12.797ZM24.997 37.6c-4.697 0-8.526 3.828-8.526 8.524 0-4.696-3.829-8.525-8.525-8.525 4.697 0 8.525-3.829 8.525-8.525 0 4.696 3.83 8.525 8.526 8.525ZM205.847 37.6c-4.696 0-8.525 3.828-8.525 8.524 0-4.696-3.829-8.525-8.525-8.525 4.696 0 8.525-3.829 8.525-8.525 0 4.696 3.829 8.525 8.525 8.525ZM53.793 57.326c-4.4 0-8 3.6-8 8 0-4.4-3.6-8-8-8 4.4 0 8-3.6 8-8 0 4.4 3.6 8 8 8ZM234.644 57.326c-4.4 0-8 3.6-8 8 0-4.4-3.6-8-8-8 4.4 0 8-3.6 8-8 0 4.4 3.6 8 8 8ZM98.223 57.52c-1.988-1.842-5.343-1.65-7.458.064-2.116 1.713-3.013 4.604-2.8 7.302.257 3.298 2.095 6.468 4.851 8.31 2.757 1.84 6.347 2.355 9.509 1.348L98.223 57.52ZM141.775 57.52c1.988-1.842 5.343-1.65 7.458.064 2.116 1.713 3.013 4.604 2.8 7.302-.257 3.298-2.095 6.468-4.851 8.31-2.757 1.84-6.347 2.355-9.509 1.348l4.102-17.024Z" fill="#fff"/><path d="M144.081 45.27c-3.312-9.508-13.27-16.318-23.313-16.018-10.044-.3-20.001 6.51-23.314 16.018-2.799 8.052-1.132 16.918.898 25.205.897 3.705 1.902 7.431 3.739 10.772 3.655 6.574 11.198 11.136 18.677 11.692 7.5-.578 15.022-5.118 18.676-11.692 1.838-3.34 2.842-7.067 3.74-10.772 2.03-8.287 3.697-17.153.897-25.205Z" fill="#fff"/><path d="M111.391 68.598c1.584-.177 2.611-2.626 2.295-5.471-.316-2.845-1.857-5.007-3.441-4.83-1.584.177-2.611 2.626-2.295 5.47.317 2.845 1.857 5.008 3.441 4.83Z" fill="#000"/><path d="M115.249 62.08a1.81 1.81 0 0 1-1.196-.45l-9.531-8.244a1.81 1.81 0 0 1-.192-2.57 1.822 1.822 0 0 1 2.564-.192l9.531 8.244c.769.664.854 1.8.192 2.57a1.854 1.854 0 0 1-1.368.621v.022ZM133.311 63.797c.317-2.845-.711-5.294-2.295-5.471-1.584-.177-3.124 1.986-3.441 4.83-.316 2.845.712 5.294 2.295 5.471 1.584.177 3.125-1.986 3.441-4.83Z" fill="#000"/><path d="M126.004 62.081a1.788 1.788 0 0 1-1.368-.62 1.812 1.812 0 0 1 .192-2.57l9.531-8.245a1.801 1.801 0 0 1 2.564.193 1.81 1.81 0 0 1-.192 2.57l-9.531 8.244c-.342.3-.769.45-1.196.45v-.022Z" fill="#000"/><path d="m115.823 84.888-4.937-8.16h9.873l-4.936 8.16Z" fill="#CE46BD"/><path d="m115.826 86.92-6.796-11.264h13.591l-6.795 11.264Zm-3.056-9.144 3.077 5.076 3.077-5.076h-6.154Z" fill="#CE46BD"/><path d="m125.181 84.888-4.937-8.16h9.873l-4.936 8.16Z" fill="#CE46BD"/><path d="m125.183 86.92-6.795-11.264h13.591l-6.796 11.264Zm-3.055-9.144 3.077 5.076 3.077-5.076h-6.154Z" fill="#CE46BD"/><path d="M131.684 74.652h-22.281a1.627 1.627 0 0 0 0 3.255h22.281a1.627 1.627 0 0 0 0-3.255ZM119.572 66.45c.491-.879 1.752-.879 2.265 0l.984 1.691.983 1.692c.492.878-.128 1.97-1.133 1.97h-3.912c-1.004 0-1.624-1.092-1.132-1.97l.983-1.692.983-1.692h-.021Z" fill="#000"/><path d="M108.844 43.322c5.086 0 9.531 4.09 11.924 10.15 2.394-6.06 6.817-10.15 11.924-10.15 5.834 0 10.813 5.353 12.821 12.913.193-3.876-.149-7.73-1.431-11.393-3.312-9.508-13.27-16.318-23.314-16.018-10.043-.3-20.001 6.51-23.313 16.018-1.282 3.684-1.624 7.517-1.432 11.393 2.009-7.56 6.988-12.913 12.821-12.913Z" fill="#0051FF"/><defs><linearGradient id="a" x1="80" y1="60.826" x2="25" y2="60.826" gradientUnits="userSpaceOnUse"><stop offset=".615" stop-color="#CE46BD"/><stop offset="1" stop-color="#F8BDF5"/></linearGradient></defs></svg>